# xmcd
#
# Track frame offsets:
#	150
#	9112
#	23837
#	37825
#	50057
#	60815
#	77352
#	85040
#	96282
#	117697
#	129852
#	143292
#	182342
#	197135
#	211152
#	227715
#	239922
#
# Disc length: 3376 seconds
#
# Revision: 0
# Processed by: cddbd v1.4PL0 Copyright (c) Steve Scherf et al.
# Submitted via: audiograbber 1.80.04
#
DISCID=ca0d2e11
DTITLE=Pier Béland - C'est Comme Ça Qu'On Fête
DYEAR=1900
DGENRE=Pop
TTITLE0=La Parenté
TTITLE1=La Grosse Hortense
TTITLE2=Nous Viderons Nos Verres
TTITLE3=Quand On S'aime Bien Tous Les Deux
TTITLE4=Les Gigueux
TTITLE5=Le Diable Est Dans La Bricole
TTITLE6=Swignez La Su C'plancher Là 
TTITLE7=Le Coeur Ne Vieillit Pas
TTITLE8=Les Maladies Avec Ti-Gus
TTITLE9=Le Jour De L'An
TTITLE10=La Veillée Chez L'Père Joe
TTITLE11=La Charlotte Prie Notre-Dame
TTITLE12=À 17 Musique D'accompagnement
TTITLE13=La Grosse Hortense
TTITLE14=Nous Viderons Nos Verres
TTITLE15=Le Diable Est Dans la Bricole
TTITLE16=La Veillée chez L'Père Joe
EXTD=
EXTT0=
EXTT1=
EXTT2=
EXTT3=
EXTT4=
EXTT5=
EXTT6=
EXTT7=
EXTT8=
EXTT9=
EXTT10=
EXTT11=
EXTT12=
EXTT13=
EXTT14=
EXTT15=
EXTT16=
PLAYORDER=
